# xmcd CD database file
# Copyright (C) 1993-1998 Ti Kan
#
# Track frame offsets:
#	150
#	21475
#	42670
#	61155
#	81550
#	105402
#	134990
#	152632
#	177907
#	205147
#	220700
#	242997
#	261772
#
# Disc length: 3934 seconds
#
# Revision: 2
# Processed by: cddbd v1.4b41PL1 Copyright (c) Steve Scherf et al.
# Submitted via: NotifyCDPlayer(CDDB) 1.51.3
#
DISCID=c20f5c0d
DTITLE=Blues Traveler - Straight On Till Morning
DYEAR=1900
DGENRE=
TTITLE0=Carolina Blues
TTITLE1=Felicia
TTITLE2=Justify The Thrill
TTITLE3=Canadian Rose
TTITLE4=Business As Usual
TTITLE5=Yours
TTITLE6=Psycho Joe
TTITLE7=Great Big World
TTITLE8=Battle Of Someone
TTITLE9=Most Precarious
TTITLE10=The Gunfighter
TTITLE11=Last Night I Dreamed
TTITLE12=Make My Way
EXTD=
EXTT0=
EXTT1=
EXTT2=
EXTT3=
EXTT4=
EXTT5=
EXTT6=
EXTT7=
EXTT8=
EXTT9=
EXTT10=
EXTT11=
EXTT12=
PLAYORDER=
